# xmcd CD database file
#
# Track frame offsets:
#	150
#	17702
#	38972
#	60890
#	84332
#	110485
#	143152
#	165542
#	192975
#	215287
#	229430
#
# Disc length: 3251 seconds
#
# Revision: 0
# Processed by: cddbd v1.5.2PL0 Copyright (c) Steve Scherf et al.
# Submitted via: CDex 1.51
#
DISCID=8d0cb10b
DTITLE=Christoph Oeding Trio - Pictures and Tales
DYEAR=1998
DGENRE=Jazz
TTITLE0=Morning Theme
TTITLE1=Josie's Song
TTITLE2=En Til, Tak!
TTITLE3=After A While
TTITLE4=Get Started
TTITLE5=Folksong 1
TTITLE6=Folksong 2
TTITLE7=Thought About It
TTITLE8=It's Getting Late
TTITLE9=Fiddle Faddle
TTITLE10=Prelude
EXTD=YEAR: 1998
EXTT0=
EXTT1=
EXTT2=
EXTT3=
EXTT4=
EXTT5=
EXTT6=
EXTT7=
EXTT8=
EXTT9=
EXTT10=
PLAYORDER=
